<?xml version="1.0" encoding="UTF-8"?>
<svg id="bizlogo" data-name="레이어 2" xmlns="http://www.w3.org/2000/svg" viewBox="0 0 54.434 18.793">
    <g id="logoText" data-name="logoText">
        <g>
            <path
                d="M22.372,9.959c-.409,0-.761-.167-1.057-.5-.432-.477-.648-1.027-.648-1.648,0-.424.14-.811.42-1.159.129-.152.292-.318.489-.5-.576-.083-1.019-.273-1.33-.568-.114-.106-.17-.223-.17-.352,0-.174.053-.261.159-.261.098,0,.193.034.284.102.303.174.625.261.966.261.197,0,.602-.068,1.216-.205.432-.098.864-.174,1.295-.227.136,0,.261.064.375.193.136.167.205.326.205.477,0,.136-.064.239-.193.307-.212.083-.432.152-.659.205-.523.242-1,.553-1.432.932-.432.409-.652.833-.659,1.273,0,.288.11.53.33.727.008.015.027.023.057.023.136,0,.352-.08.648-.239.477-.25.974-.564,1.489-.943.455-.348.724-.523.807-.523.091,0,.17.032.239.097s.112.131.131.199.028.14.028.216c0,.326-.159.621-.477.886-.386.326-.761.58-1.125.761-.538.311-1,.466-1.386.466ZM25.315,14.959c-.189-.015-.345-.106-.466-.273-.053-.076-.08-.148-.08-.216,0-.038.008-.072.023-.102l-.011-.102c0-.045.011-.091.034-.136.333-.538.977-1.125,1.932-1.761,0-.008.063-.057.188-.148s.191-.136.199-.136l.148-.114-.295.023c-.053,0-.098-.004-.136-.011l-.409.011-.477-.011-.114.011c-.098,0-.188.004-.267.011s-.161.011-.244.011c-.182,0-.273-.072-.273-.216,0-.038.011-.076.034-.114l-.023-.068c0-.061.114-.182.341-.364l.682-.545c.205-.197.42-.394.648-.591-.379.091-.67.182-.875.273-.326.167-.678.25-1.057.25-.205-.023-.383-.093-.534-.21s-.227-.237-.227-.358c0-.083.049-.148.148-.193,1.015-.5,2.023-.75,3.023-.75.379,0,.72.034,1.023.102.136.045.244.131.324.256s.119.241.119.347c0,.136-.083.205-.25.205-.167.174-.383.322-.648.443-.106.045-.197.095-.273.148-.523.318-.909.587-1.159.807.379-.045.591-.068.636-.068.871.015,1.436.182,1.693.5.098.114.148.223.148.33-.008.061-.034.117-.08.17-.227.182-.489.314-.784.398-.947.364-1.61.788-1.989,1.273.288-.038.807-.08,1.557-.125.212-.008.409-.019.591-.034.129-.008.292-.011.489-.011.402.023.602.163.602.42,0,.182-.299.292-.898.33-1.318.121-2.269.227-2.852.318-.076.015-.129.023-.159.023ZM26.758,8.868c-.136,0-.259-.03-.369-.091s-.165-.136-.165-.227c0-.152.049-.538.148-1.159.121-.644.182-1.114.182-1.409,0-.379-.049-.754-.148-1.125,0-.068-.034-.18-.102-.335s-.102-.271-.102-.347c.03-.22.174-.33.432-.33.849.053,1.273.636,1.273,1.75,0,.212-.019.428-.057.648v.045c.538-.318,1.083-.477,1.636-.477.295,0,.564.08.807.239.083.068.125.14.125.216,0,.023-.008.049-.023.08-.114.121-.295.201-.545.239-.788.098-1.61.545-2.466,1.341-.197.417-.314.678-.352.784s-.129.159-.273.159Z"
                style="fill: #231815;" />
            <path
                d="M31.779,13.391c-.167,0-.322-.061-.466-.182-.197-.167-.295-.333-.295-.5,0-.136.072-.242.216-.318.621-.28,1.277-.447,1.966-.5.667-.333,1-.788,1-1.364-.28.083-.557.148-.83.193-.114,0-.212-.03-.295-.091-.189-.144-.284-.311-.284-.5l.011-.08c-.576-.75-.981-1.492-1.216-2.227-.061-.303-.091-.602-.091-.898,0-.394.053-.78.159-1.159l.023-.114c.03-.159.117-.239.261-.239.083,0,.155.019.216.057.341.197.553.462.636.795.106.402.159.83.159,1.284l.011.148c.545-.182,1.049-.273,1.511-.273.576,0,1.038.174,1.386.523.22-.538.33-1.068.33-1.591l-.011-.25c0-.205.064-.307.193-.307l.023.011.034-.011c.152,0,.277.095.375.284.152.311.227.652.227,1.023,0,.409-.098.856-.295,1.341-.47,1.144-.871,1.716-1.205,1.716-.068,0-.186.027-.352.08.121.197.182.402.182.614,0,.326-.14.64-.42.943.545-.045,1.034-.068,1.466-.068,1.008,0,1.523.148,1.546.443v.25c0,.038-.017.076-.051.114s-.074.061-.119.068c-.545.114-1.189.17-1.932.17-.364,0-.697.004-1,.011-.932.023-1.902.212-2.909.568-.053.023-.106.034-.159.034ZM33.53,9.641l.023-.011c.47-.144.92-.216,1.352-.216l.239.011c.076-.326.22-.652.432-.977l-.489-.011c-.515,0-.985.102-1.409.307l-.364.159c.091.22.163.466.216.739Z"
                style="fill: #231815;" />
            <path
                d="M40.515,13.027c-.765,0-1.337-.102-1.716-.307-.174-.091-.261-.212-.261-.364,0-.098.03-.205.091-.318.038-.053.091-.08.159-.08.189-.053.39-.08.602-.08.114,0,.223.006.33.017s.201.017.284.017c.061,0,.716-.057,1.966-.17.689-.045,1.367-.14,2.034-.284.318-.091.561-.136.727-.136.242,0,.456.085.642.256s.278.328.278.472c0,.098-.064.182-.193.25-1.174.439-2.466.663-3.875.67l-1.068.057ZM41.833,10.811c-.492,0-.966-.121-1.421-.364-.523-.273-.807-.777-.852-1.511,0-.636.292-1.231.875-1.784-.864-.114-1.383-.489-1.557-1.125v-.057c0-.136.068-.205.205-.205.068,0,.133.019.193.057.409.25.92.375,1.534.375.591,0,1.189-.072,1.796-.216.295-.053.572-.098.83-.136.159,0,.295.049.409.148.152.144.227.284.227.42,0,.106-.047.186-.142.239s-.203.106-.324.159c-.136.121-.394.246-.773.375-.841.348-1.485.765-1.932,1.25-.333.371-.5.67-.5.898,0,.28.311.42.932.42.689,0,1.277-.189,1.761-.568.076-.076.167-.114.273-.114.159,0,.311.061.455.182.212.189.318.383.318.58,0,.091-.038.17-.114.239-.629.492-1.36.739-2.193.739Z"
                style="fill: #231815;" />
            <path
                d="M47.57,13.141c-.061,0-.125-.015-.193-.045-.144-.015-.288-.076-.432-.182-.227-.167-.341-.337-.341-.511,0-.083.034-.163.102-.239.22-.242.432-.496.636-.761.379-.523.826-.981,1.341-1.375-.098-.015-.189-.023-.273-.023-.25,0-.511.045-.784.136-.189.061-.314.091-.375.091-.083,0-.167-.03-.25-.091-.121-.03-.233-.102-.335-.216s-.157-.216-.165-.307c.015-.727.265-1.383.75-1.966.144-.212.337-.455.58-.727l-.511-.023c-.379,0-.731.091-1.057.273-.068.038-.136.057-.205.057-.083,0-.167-.03-.25-.091-.242-.159-.364-.337-.364-.534,0-.227.311-.379.932-.455.303-.038.629-.057.977-.057.265,0,.53.019.795.057.015,0,.027.004.034.011.235.03.386.057.455.08.03.015.068.027.114.034.015.008.023.015.023.023s-.011.011-.034.011c.205,0,.39.072.557.216.144.114.216.246.216.398,0,.038-.008.08-.023.125-.167.371-.428.705-.784,1-.371.348-.697.742-.977,1.182l.216-.011c.386,0,.735.11,1.045.33.129.076.265.144.409.205.114.045.22.117.318.216.136.136.205.273.205.409,0,.083-.042.167-.125.25-.197.167-.405.326-.625.477-.265.182-.511.383-.739.602.697-.174,1.208-.261,1.534-.261.311,0,.545.095.705.284.083.114.125.212.125.295,0,.068-.04.121-.119.159s-.169.057-.267.057l-.205-.011c-.28,0-.625.076-1.034.227-.508.144-.977.352-1.409.625-.061.038-.125.057-.193.057ZM52.024,12.436c-.136,0-.303-.098-.5-.295-.159-.152-.254-.288-.284-.409-.061-.364-.091-.731-.091-1.102l.034-1.011c-.508.061-.83.091-.966.091h-.182c-.311-.015-.564-.148-.761-.398-.023-.038-.034-.072-.034-.102,0-.045.019-.087.057-.125.129-.114.299-.205.511-.273.439-.167.89-.254,1.352-.261l-.045-1.761c0-.182.072-.303.216-.364l.227-.068c.083,0,.159.045.227.136.265.303.42.659.466,1.068.03.273.045.549.045.83l-.023,1.045v.398c0,.955-.019,1.727-.057,2.318-.015.189-.08.284-.193.284ZM53.672,12.88c-.379,0-.568-.269-.568-.807,0-.197.011-.333.034-.409.083-.833.125-1.477.125-1.932,0-.909-.068-1.784-.205-2.625-.091-.674-.136-1.091-.136-1.25,0-.136.076-.205.227-.205s.318.053.5.159c.523.311.784,1.546.784,3.705l-.011,1.034c0,.894-.193,1.644-.58,2.25-.038.053-.095.08-.17.08Z"
                style="fill: #231815;" />
        </g>
    </g>
    <g id="logoIcon" data-name="logoIcon">
        <circle cx="9.396" cy="9.396" r="9.165"
            style="fill: none; stroke: #231815; stroke-miterlimit: 10; stroke-width: .464px;" />
        <path
            d="M17.366,11.264c-.593,2.392-2.269,4.483-4.708,5.518-4.133,1.754-8.919-.179-10.673-4.312-1.586-3.737-.155-8.017,3.184-10.107-1.249,1.356-.636,2.791-.219,3.57.607,1.122,2.271,2.468,3.293,2.828.066.026.127.044.189.061-.012,2.406,3.44,5.889,8.935,2.443Z"
            style="fill: #f39800;" />
        <path
            d="M8.431,8.821c-.917-.182-2.915-1.633-3.543-2.896-.393-.791-.969-2.207.28-3.563.97-.683,2.552-.899,3.431.303,1.172,1.61-.252,4.398-.168,6.155Z"
            style="fill: #f7d466;" />
        <path
            d="M16.812,12.078c-3.895,3.726-8.385-.073-8.381-3.257,3.644,2.295,4.163,1.185,6.503.606,1.479-.366,3.601,1.002,1.877,2.651Z"
            style="fill: #835023;" />
        <circle cx="14.379" cy="6.608" r=".552" style="fill: #f39800;" />
        <circle cx="14.514" cy="4.586" r=".333" style="fill: #835023;" />
        <circle cx="12.463" cy="3.251" r=".214" style="fill: #835023;" />
    </g>
</svg>