<?xml version="1.0" encoding="UTF-8"?>
<svg id="b" data-name="레이어 2" xmlns="http://www.w3.org/2000/svg" viewBox="0 0 86.205 18.793">
  <g id="c" data-name="logo">
    <g>
      <path d="M31.22,2.202v.788h-5.122v4.146c0,.137.043.248.129.334.085.086.202.129.351.129h2.827c.65,0,1.272-.055,1.867-.163.593-.108,1.05-.266,1.37-.471V2.202h3.785v2.604h1.337v.942h-1.337v2.639h-3.785v-.634c-.172.103-.38.194-.625.273-.246.08-.515.146-.806.197s-.603.092-.934.12-.662.043-.993.043h-5.07c-.571,0-1.028-.172-1.371-.515s-.514-.799-.514-1.37V2.202h8.891ZM36.581,15.803v.788h-12.658c-.435,0-.783-.117-1.045-.352-.264-.234-.395-.534-.395-.899s.131-.662.395-.891c.262-.229.61-.343,1.045-.343h8.719v-.891h-8.822c-.399,0-.722-.122-.968-.368s-.368-.54-.368-.882.123-.634.368-.874c.246-.24.568-.359.968-.359h8.822v-.891h-9.85v-.788h12.299c.399,0,.723.119.968.359.246.24.368.531.368.874,0,.331-.122.619-.368.864-.245.246-.568.369-.968.369h-8.821v.907h8.821c.399,0,.723.12.968.36.246.239.368.525.368.856,0,.342-.122.637-.368.882-.245.246-.568.368-.968.368h-8.821v.908h10.312Z" style="fill: #231815;"/>
      <path d="M38.894,15.803h5.43v-3.666h3.94v3.341c0,.217.103.325.308.325h5.122v.788h-14.8v-.788ZM39.048,2.202h3.785v3.357l3.46,2.741,3.461-2.741v-3.357h3.785v10.09h-3.785l-3.461-2.741-3.46,2.741h-3.785V2.202ZM45.523,8.917l-2.689-2.124v4.266l2.689-2.142ZM49.754,11.058v-4.266l-2.673,2.124,2.673,2.142Z" style="fill: #231815;"/>
      <path d="M55.065,15.803h14.8v.788h-14.8v-.788ZM59.004,10.715c0,.148.043.266.129.352.085.085.196.128.334.128h10.089v.788h-12.453c-.571,0-1.027-.171-1.37-.514s-.514-.805-.514-1.388V2.202h14.098v.788h-10.312v7.726Z" style="fill: #231815;"/>
      <path d="M75.928,15.803c.65,0,1.276-.052,1.876-.154s1.059-.257,1.379-.463v.788c-.343.206-.82.36-1.431.463-.611.103-1.254.154-1.927.154h-2.724c-.663,0-1.194-.197-1.594-.591-.399-.395-.6-.923-.6-1.585s.2-1.19.6-1.585c.399-.394.931-.591,1.594-.591h2.586v-2.552h-2.706c-.628,0-1.131-.188-1.508-.565s-.565-.88-.565-1.508.188-1.127.565-1.499c.377-.37.88-.557,1.508-.557h2.706v-2.569h-4.453v-.788h5.379c.627,0,1.13.188,1.507.565s.565.88.565,1.508-.188,1.13-.565,1.507-.88.565-1.507.565h-2.707v2.553h2.707c.627,0,1.13.186,1.507.557s.565.871.565,1.499-.188,1.13-.565,1.507-.88.565-1.507.565h-2.707v2.775h2.021ZM79.662,8.026h-2.569v-.942h2.569V2.202h2.826v14.218h-2.826v-8.394ZM83.208,2.202h2.997v14.39h-2.997V2.202Z" style="fill: #231815;"/>
    </g>
    <circle cx="9.397" cy="9.397" r="9.165" style="fill: none; stroke: #231815; stroke-miterlimit: 10; stroke-width: .464px;"/>
    <path d="M17.366,11.264c-.593,2.392-2.269,4.483-4.708,5.518-4.133,1.754-8.919-.179-10.673-4.312-1.586-3.737-.155-8.017,3.184-10.107-1.249,1.356-.636,2.791-.219,3.57.607,1.122,2.271,2.468,3.293,2.828.066.026.127.044.189.061-.012,2.406,3.44,5.889,8.935,2.443Z" style="fill: #f39800;"/>
    <path d="M8.431,8.821c-.917-.182-2.915-1.633-3.543-2.896-.393-.791-.969-2.207.28-3.563.97-.683,2.552-.899,3.431.303,1.172,1.61-.252,4.398-.168,6.155Z" style="fill: #f7d466;"/>
    <path d="M16.812,12.078c-3.895,3.726-8.385-.073-8.381-3.257,3.644,2.295,4.163,1.185,6.503.606,1.479-.366,3.601,1.002,1.877,2.651Z" style="fill: #835023;"/>
    <circle cx="14.379" cy="6.608" r=".552" style="fill: #f39800;"/>
    <circle cx="14.514" cy="4.587" r=".333" style="fill: #835023;"/>
    <circle cx="12.463" cy="3.251" r=".214" style="fill: #835023;"/>
  </g>
</svg>