<?xml version="1.0" encoding="UTF-8"?>
<svg id="b" data-name="레이어 2" xmlns="http://www.w3.org/2000/svg" viewBox="0 0 79.183 18.793">
  <g id="c" data-name="logoText">
    <g>
      <path d="M25.218,10.042c-.672,0-1.25-.274-1.736-.821-.709-.784-1.064-1.686-1.064-2.706,0-.697.23-1.331.691-1.904.212-.249.479-.523.803-.821-.946-.137-1.674-.448-2.184-.933-.187-.174-.28-.367-.28-.579,0-.286.087-.429.261-.429.162,0,.317.056.467.168.498.286,1.027.429,1.586.429.324,0,.989-.112,1.997-.336.709-.162,1.418-.286,2.128-.373.224,0,.429.106.616.317.224.274.336.535.336.784,0,.224-.106.392-.317.504-.348.137-.709.249-1.083.336-.859.398-1.642.908-2.352,1.53-.709.672-1.07,1.369-1.083,2.09,0,.473.18.871.541,1.194.012.025.044.037.093.037.224,0,.579-.131,1.064-.392.784-.411,1.599-.927,2.445-1.549.747-.572,1.188-.859,1.325-.859.149,0,.28.053.392.159s.184.215.215.327.047.23.047.355c0,.535-.261,1.02-.784,1.456-.635.535-1.25.952-1.848,1.25-.883.51-1.642.765-2.277.765ZM33.936,18.724c-.291.111-.586.086-.883-.075-.132-.075-.222-.163-.271-.264-.027-.056-.04-.112-.039-.168l-.089-.144c-.032-.067-.047-.143-.046-.226.114-1.033.654-2.359,1.619-3.977-.005-.011.052-.128.174-.352s.187-.337.198-.343l.139-.273-.422.243c-.079.037-.149.064-.21.08l-.598.306-.716.321-.16.097c-.146.07-.275.138-.388.206s-.231.131-.354.19c-.27.129-.455.086-.557-.127-.027-.056-.037-.12-.03-.193l-.082-.085c-.043-.09.04-.35.248-.78l.625-1.291c.164-.437.345-.881.543-1.334-.497.403-.865.743-1.104,1.023-.365.477-.828.85-1.39,1.118-.319.111-.633.133-.94.066s-.504-.19-.59-.37c-.059-.124-.031-.254.082-.391,1.152-1.459,2.469-2.542,3.951-3.249.562-.268,1.091-.458,1.589-.571.234-.029.455.021.661.15s.347.272.422.429c.096.202.021.362-.226.48-.124.376-.34.748-.647,1.115-.125.142-.225.28-.3.412-.55.841-.933,1.513-1.148,2.015.529-.335.828-.519.895-.551,1.302-.593,2.257-.745,2.864-.456.226.099.377.227.452.384.032.095.032.198.003.309-.208.43-.502.812-.881,1.144-1.147,1.209-1.83,2.306-2.048,3.293.4-.26,1.14-.688,2.22-1.286.309-.161.593-.317.852-.468.186-.102.424-.223.716-.362.611-.25,1.008-.184,1.19.198.129.27-.237.644-1.098,1.123-1.869,1.112-3.203,1.941-4.004,2.488-.102.076-.175.125-.22.146ZM32.423,8.25c-.224,0-.426-.05-.607-.149s-.271-.224-.271-.373c0-.249.081-.883.243-1.904.199-1.058.299-1.829.299-2.314,0-.622-.081-1.238-.243-1.848,0-.112-.056-.296-.168-.551s-.168-.445-.168-.569c.05-.361.286-.541.709-.541,1.394.087,2.09,1.045,2.09,2.874,0,.348-.031.703-.093,1.064v.075c.883-.523,1.779-.784,2.688-.784.485,0,.927.131,1.325.392.137.112.205.23.205.355,0,.037-.012.081-.037.131-.187.199-.485.33-.896.392-1.294.162-2.644.896-4.05,2.202-.324.684-.516,1.114-.579,1.288s-.212.261-.448.261Z" style="fill: #614c71;"/>
      <path d="M41.976,16.447c-.274,0-.529-.1-.765-.299-.324-.274-.485-.547-.485-.821,0-.224.118-.398.355-.523,1.02-.46,2.097-.734,3.229-.821,1.095-.547,1.642-1.294,1.642-2.24-.46.137-.915.243-1.362.317-.187,0-.348-.05-.485-.149-.311-.236-.467-.51-.467-.821l.019-.131c-.946-1.232-1.611-2.451-1.997-3.658-.1-.498-.149-.989-.149-1.474,0-.647.087-1.282.261-1.904l.037-.187c.05-.261.193-.392.429-.392.137,0,.255.031.355.093.56.324.908.759,1.045,1.306.174.659.261,1.362.261,2.109l.019.243c.896-.299,1.723-.448,2.482-.448.946,0,1.705.286,2.277.859.361-.883.541-1.754.541-2.613l-.019-.411c0-.336.106-.504.317-.504l.037.019.056-.019c.249,0,.454.156.616.467.249.51.373,1.07.373,1.68,0,.672-.162,1.406-.485,2.202-.771,1.879-1.431,2.818-1.978,2.818-.112,0-.305.044-.579.131.199.324.299.659.299,1.008,0,.535-.23,1.051-.691,1.549.896-.075,1.698-.112,2.408-.112,1.655,0,2.501.243,2.538.728v.411c0,.062-.028.124-.084.187s-.121.1-.196.112c-.896.187-1.953.28-3.173.28-.597,0-1.145.006-1.642.019-1.53.037-3.123.348-4.778.933-.087.037-.174.056-.261.056ZM44.85,10.288l.037-.019c.771-.236,1.512-.355,2.221-.355l.392.019c.124-.535.361-1.07.709-1.605l-.803-.019c-.846,0-1.618.168-2.314.504l-.597.261c.149.361.268.765.355,1.213Z" style="fill: #614c71;"/>
      <path d="M56.323,15.85c-1.257,0-2.196-.168-2.818-.504-.286-.149-.429-.348-.429-.597,0-.162.05-.336.149-.523.062-.087.149-.131.261-.131.311-.087.641-.131.989-.131.187,0,.367.009.541.028s.33.028.467.028c.1,0,1.176-.093,3.229-.28,1.132-.075,2.246-.23,3.341-.467.523-.149.921-.224,1.194-.224.398,0,.75.14,1.055.42s.457.538.457.775c0,.162-.106.299-.317.411-1.929.722-4.05,1.089-6.364,1.101l-1.754.093ZM58.488,12.21c-.809,0-1.586-.199-2.333-.597-.859-.448-1.325-1.275-1.4-2.482,0-1.045.479-2.022,1.437-2.93-1.418-.187-2.271-.803-2.557-1.848v-.093c0-.224.112-.336.336-.336.112,0,.218.031.317.093.672.411,1.512.616,2.52.616.971,0,1.953-.118,2.949-.355.485-.087.939-.162,1.362-.224.261,0,.485.081.672.243.249.236.373.467.373.691,0,.174-.078.305-.233.392s-.333.174-.532.261c-.224.199-.647.404-1.269.616-1.381.572-2.439,1.257-3.173,2.053-.547.61-.821,1.101-.821,1.474,0,.46.51.691,1.53.691,1.132,0,2.097-.311,2.893-.933.124-.124.274-.187.448-.187.261,0,.51.1.747.299.348.311.523.628.523.952,0,.149-.062.28-.187.392-1.033.809-2.233,1.213-3.602,1.213Z" style="fill: #614c71;"/>
      <path d="M67.91,16.036c-.1,0-.205-.025-.317-.075-.236-.025-.473-.124-.709-.299-.373-.274-.56-.554-.56-.84,0-.137.056-.268.168-.392.361-.398.709-.815,1.045-1.25.622-.859,1.356-1.611,2.202-2.258-.162-.025-.311-.037-.448-.037-.411,0-.84.075-1.288.224-.311.1-.516.149-.616.149-.137,0-.274-.05-.411-.149-.199-.05-.383-.168-.551-.355s-.258-.355-.271-.504c.025-1.194.435-2.271,1.232-3.229.236-.348.554-.747.952-1.194l-.84-.037c-.622,0-1.201.149-1.736.448-.112.062-.224.093-.336.093-.137,0-.274-.05-.411-.149-.398-.261-.597-.554-.597-.877,0-.373.51-.622,1.53-.747.498-.062,1.033-.093,1.605-.093.435,0,.871.031,1.306.093.025,0,.044.006.056.019.386.05.635.093.747.131.05.025.112.044.187.056.025.012.037.025.037.037s-.019.019-.056.019c.336,0,.641.118.915.355.236.187.355.404.355.653,0,.062-.012.131-.037.205-.274.61-.703,1.157-1.288,1.642-.61.572-1.145,1.219-1.605,1.941l.355-.019c.635,0,1.207.18,1.717.541.212.124.435.236.672.336.187.075.361.193.523.355.224.224.336.448.336.672,0,.137-.068.274-.205.411-.324.274-.666.535-1.027.784-.435.299-.84.628-1.213.989,1.145-.286,1.985-.429,2.52-.429.51,0,.896.156,1.157.467.137.187.205.348.205.485,0,.112-.065.199-.196.261s-.277.093-.439.093l-.336-.019c-.46,0-1.027.124-1.698.373-.834.236-1.605.579-2.314,1.027-.1.062-.205.093-.317.093ZM75.226,14.879c-.224,0-.498-.162-.821-.485-.261-.249-.417-.473-.467-.672-.1-.597-.149-1.201-.149-1.81l.056-1.661c-.834.1-1.362.149-1.586.149h-.299c-.51-.025-.927-.243-1.25-.653-.037-.062-.056-.118-.056-.168,0-.075.031-.143.093-.205.212-.187.491-.336.84-.448.722-.274,1.462-.417,2.221-.429l-.075-2.893c0-.299.118-.498.355-.597l.373-.112c.137,0,.261.075.373.224.435.498.691,1.083.765,1.754.05.448.075.902.075,1.362l-.037,1.717v.653c0,1.568-.031,2.837-.093,3.807-.025.311-.131.467-.317.467ZM77.932,15.607c-.622,0-.933-.442-.933-1.325,0-.324.019-.547.056-.672.137-1.369.205-2.426.205-3.173,0-1.493-.112-2.93-.336-4.311-.149-1.107-.224-1.792-.224-2.053,0-.224.124-.336.373-.336s.523.087.821.261c.859.51,1.288,2.538,1.288,6.084l-.019,1.698c0,1.468-.317,2.7-.952,3.695-.062.087-.156.131-.28.131Z" style="fill: #614c71;"/>
    </g>
  </g>
  <g id="d" data-name="logo">
    <circle cx="9.396" cy="9.396" r="9.165" style="fill: none; stroke: #614c71; stroke-miterlimit: 10; stroke-width: .464px;"/>
    <path d="M17.366,11.264c-.593,2.392-2.269,4.483-4.708,5.518-4.133,1.754-8.919-.179-10.673-4.312-1.586-3.737-.155-8.017,3.184-10.107-1.249,1.356-.636,2.791-.219,3.57.607,1.122,2.271,2.468,3.293,2.828.066.026.127.044.189.061-.012,2.406,3.44,5.889,8.935,2.443Z" style="fill: #f39800;"/>
    <path d="M8.431,8.821c-.917-.182-2.915-1.633-3.543-2.896-.393-.791-.969-2.207.28-3.563.97-.683,2.552-.899,3.431.303,1.172,1.61-.252,4.398-.168,6.155Z" style="fill: #f7d466;"/>
    <path d="M16.812,12.078c-3.895,3.726-8.385-.073-8.381-3.257,3.644,2.295,4.163,1.185,6.503.606,1.479-.366,3.601,1.002,1.877,2.651Z" style="fill: #835023;"/>
    <circle cx="14.379" cy="6.608" r=".552" style="fill: #f39800;"/>
    <circle cx="14.514" cy="4.586" r=".333" style="fill: #835023;"/>
    <circle cx="12.463" cy="3.251" r=".214" style="fill: #835023;"/>
  </g>
</svg>