{
	"asset":{
		"generator":"Khronos glTF Blender I/O v4.3.47",
		"version":"2.0"
	},
	"scene":0,
	"scenes":[
		{
			"extras":{
				"gltf_action_filter":[
					{
						"keep":1,
						"action":{
							"name":"01.stand",
							"type":"Action"
						}
					},
					{
						"keep":1,
						"action":{
							"name":"02.rotation",
							"type":"Action"
						}
					},
					{
						"keep":1,
						"action":{
							"name":"03.rotation",
							"type":"Action"
						}
					},
					{
						"keep":1,
						"action":{
							"name":"04.stand",
							"type":"Action"
						}
					}
				]
			},
			"name":"Scene",
			"nodes":[
				0,
				1
			]
		}
	],
	"nodes":[
		{
			"mesh":0,
			"name":"bottle",
			"rotation":[
				0,
				0.980708658695221,
				0,
				0.195475235581398
			],
			"translation":[
				0,
				0.35026490688323975,
				0
			]
		},
		{
			"mesh":1,
			"name":"cap",
			"scale":[
				0.43554946780204773,
				0.043801791965961456,
				0.43554946780204773
			],
			"translation":[
				0,
				0.8324600458145142,
				0
			]
		}
	],
	"materials":[
		{
			"doubleSided":true,
			"name":"\ub9e4\ud14c\ub9ac\uc5bc.002",
			"pbrMetallicRoughness":{
				"baseColorTexture":{
					"index":0
				},
				"metallicFactor":0,
				"roughnessFactor":0
			}
		},
		{
			"doubleSided":true,
			"name":"\ub9e4\ud14c\ub9ac\uc5bc.001"
		},
		{
			"doubleSided":true,
			"name":"\ub9e4\ud14c\ub9ac\uc5bc.003",
			"pbrMetallicRoughness":{
				"baseColorFactor":[
					0,
					0,
					0,
					1
				]
			}
		},
		{
			"doubleSided":true,
			"name":"\ub9e4\ud14c\ub9ac\uc5bc.004",
			"pbrMetallicRoughness":{
				"baseColorFactor":[
					0.8002997636795044,
					0.6689780354499817,
					0.03629065677523613,
					1
				],
				"metallicFactor":0
			}
		}
	],
	"meshes":[
		{
			"name":"\uc2e4\ub9b0\ub354.001",
			"primitives":[
				{
					"attributes":{
						"POSITION":0,
						"NORMAL":1,
						"TEXCOORD_0":2
					},
					"indices":3,
					"material":0
				},
				{
					"attributes":{
						"POSITION":4,
						"NORMAL":5,
						"TEXCOORD_0":6
					},
					"indices":7,
					"material":1
				}
			]
		},
		{
			"name":"\uc2e4\ub9b0\ub354.002",
			"primitives":[
				{
					"attributes":{
						"POSITION":8,
						"NORMAL":9,
						"TEXCOORD_0":10
					},
					"indices":11,
					"material":2
				},
				{
					"attributes":{
						"POSITION":12,
						"NORMAL":13,
						"TEXCOORD_0":14
					},
					"indices":15,
					"material":3
				}
			]
		}
	],
	"textures":[
		{
			"sampler":0,
			"source":0
		}
	],
	"images":[
		{
			"mimeType":"image/jpeg",
			"name":"\ud1a0\ub07c\uc18c\uc8fc",
			"uri":"%ED%86%A0%EB%81%BC%EC%86%8C%EC%A3%BC.jpg"
		}
	],
	"accessors":[
		{
			"bufferView":0,
			"componentType":5126,
			"count":1245,
			"max":[
				0.09049541503190994,
				0.4336116313934326,
				0.09049541503190994
			],
			"min":[
				-0.09049541503190994,
				-0.3279535174369812,
				-0.09049541503190994
			],
			"type":"VEC3"
		},
		{
			"bufferView":1,
			"componentType":5126,
			"count":1245,
			"type":"VEC3"
		},
		{
			"bufferView":2,
			"componentType":5126,
			"count":1245,
			"type":"VEC2"
		},
		{
			"bufferView":3,
			"componentType":5123,
			"count":5850,
			"type":"SCALAR"
		},
		{
			"bufferView":4,
			"componentType":5126,
			"count":1278,
			"max":[
				0.09049541503190994,
				0.46717482805252075,
				0.09049541503190994
			],
			"min":[
				-0.09049541503190994,
				-0.3554714322090149,
				-0.09049541503190994
			],
			"type":"VEC3"
		},
		{
			"bufferView":5,
			"componentType":5126,
			"count":1278,
			"type":"VEC3"
		},
		{
			"bufferView":6,
			"componentType":5126,
			"count":1278,
			"type":"VEC2"
		},
		{
			"bufferView":7,
			"componentType":5123,
			"count":5658,
			"type":"SCALAR"
		},
		{
			"bufferView":8,
			"componentType":5126,
			"count":162,
			"max":[
				0.0990593209862709,
				0.3499998152256012,
				0.0990593209862709
			],
			"min":[
				-0.0990593209862709,
				-0.3499998152256012,
				-0.0990593209862709
			],
			"type":"VEC3"
		},
		{
			"bufferView":9,
			"componentType":5126,
			"count":162,
			"type":"VEC3"
		},
		{
			"bufferView":10,
			"componentType":5126,
			"count":162,
			"type":"VEC2"
		},
		{
			"bufferView":11,
			"componentType":5123,
			"count":474,
			"type":"SCALAR"
		},
		{
			"bufferView":12,
			"componentType":5126,
			"count":207,
			"max":[
				0.07072117924690247,
				-0.3499997854232788,
				0.07072117924690247
			],
			"min":[
				-0.07072117924690247,
				-1.9310344457626343,
				-0.07072117924690247
			],
			"type":"VEC3"
		},
		{
			"bufferView":13,
			"componentType":5126,
			"count":207,
			"type":"VEC3"
		},
		{
			"bufferView":14,
			"componentType":5126,
			"count":207,
			"type":"VEC2"
		},
		{
			"bufferView":15,
			"componentType":5123,
			"count":1050,
			"type":"SCALAR"
		}
	],
	"bufferViews":[
		{
			"buffer":0,
			"byteLength":14940,
			"byteOffset":0,
			"target":34962
		},
		{
			"buffer":0,
			"byteLength":14940,
			"byteOffset":14940,
			"target":34962
		},
		{
			"buffer":0,
			"byteLength":9960,
			"byteOffset":29880,
			"target":34962
		},
		{
			"buffer":0,
			"byteLength":11700,
			"byteOffset":39840,
			"target":34963
		},
		{
			"buffer":0,
			"byteLength":15336,
			"byteOffset":51540,
			"target":34962
		},
		{
			"buffer":0,
			"byteLength":15336,
			"byteOffset":66876,
			"target":34962
		},
		{
			"buffer":0,
			"byteLength":10224,
			"byteOffset":82212,
			"target":34962
		},
		{
			"buffer":0,
			"byteLength":11316,
			"byteOffset":92436,
			"target":34963
		},
		{
			"buffer":0,
			"byteLength":1944,
			"byteOffset":103752,
			"target":34962
		},
		{
			"buffer":0,
			"byteLength":1944,
			"byteOffset":105696,
			"target":34962
		},
		{
			"buffer":0,
			"byteLength":1296,
			"byteOffset":107640,
			"target":34962
		},
		{
			"buffer":0,
			"byteLength":948,
			"byteOffset":108936,
			"target":34963
		},
		{
			"buffer":0,
			"byteLength":2484,
			"byteOffset":109884,
			"target":34962
		},
		{
			"buffer":0,
			"byteLength":2484,
			"byteOffset":112368,
			"target":34962
		},
		{
			"buffer":0,
			"byteLength":1656,
			"byteOffset":114852,
			"target":34962
		},
		{
			"buffer":0,
			"byteLength":2100,
			"byteOffset":116508,
			"target":34963
		}
	],
	"samplers":[
		{
			"magFilter":9729,
			"minFilter":9987,
			"wrapS":33071,
			"wrapT":33071
		}
	],
	"buffers":[
		{
			"byteLength":118608,
			"uri":"tokki2.bin"
		}
	]
}
